<svg width="56" height="56" viewBox="0 0 56 56" fill="none" xmlns="http://www.w3.org/2000/svg">
<path d="M54 28C54 42.3594 42.3594 54 28 54C13.6406 54 2 42.3594 2 28C2 13.6406 13.6406 2 28 2C42.3594 2 54 13.6406 54 28Z" fill="#5E2F7F" stroke="white" stroke-width="4"/>
<path d="M12.8124 27.3933L39.809 16.9843C41.062 16.5317 42.1564 17.29 41.7504 19.1847L41.7527 19.1823L37.156 40.838C36.8154 42.3733 35.903 42.7467 34.6267 42.0233L27.6267 36.8643L24.2504 40.117C23.877 40.4903 23.562 40.8053 22.8387 40.8053L23.3357 33.6817L36.309 21.9613C36.8737 21.4643 36.183 21.1843 35.4387 21.679L19.4064 31.773L12.495 29.617C10.9947 29.141 10.962 28.1167 12.8124 27.3933V27.3933Z" fill="white"/>
</svg>
